# This file uses centimeters as units for non-parametric coordinates.

mtllib plane.mtl
g default
v -6.630355 -0.056162 0.065664
v -5.019358 -0.056162 0.065664
v -3.408362 -0.056162 0.065664
v -1.797365 -0.056162 0.065664
v -0.186369 -0.056162 0.065664
v 1.424628 -0.056162 0.065664
v 3.035625 -0.056162 0.065664
v 4.646621 -0.056162 0.065664
v 6.257617 -0.056162 0.065664
v -6.630355 1.554834 0.065664
v -5.019358 1.554834 0.065664
v -3.408362 1.554834 0.065664
v -1.797365 1.554834 0.065664
v -0.186369 1.554834 0.065664
v 1.424628 1.554834 0.065664
v 3.035625 1.554834 0.065664
v 4.646621 1.554834 0.065664
v 6.257617 1.554834 0.065664
v -6.630355 3.165831 0.065664
v -5.019358 3.165831 0.065664
v -3.408362 3.165831 0.065664
v -1.797365 3.165831 0.065664
v -0.186369 3.165831 0.065664
v 1.424628 3.165831 0.065664
v 3.035625 3.165831 0.065664
v 4.646621 3.165831 0.065664
v 6.257617 3.165831 0.065664
v -6.630355 4.776827 0.065664
v -5.019358 4.776827 0.065664
v -3.408362 4.776827 0.065664
v -1.797365 4.776827 0.065664
v -0.186369 4.776827 0.065664
v 1.424628 4.776827 0.065664
v 3.035625 4.776827 0.065664
v 4.646621 4.776827 0.065664
v 6.257617 4.776827 0.065664
v -6.630355 6.387824 0.065664
v -5.019358 6.387824 0.065664
v -3.408362 6.387824 0.065664
v -1.797365 6.387824 0.065664
v -0.186369 6.387824 0.065664
v 1.424628 6.387824 0.065664
v 3.035625 6.387824 0.065664
v 4.646621 6.387824 0.065664
v 6.257617 6.387824 0.065664
v -6.630355 7.998820 0.065664
v -5.019358 7.998820 0.065664
v -3.408362 7.998820 0.065664
v -1.797365 7.998820 0.065664
v -0.186369 7.998820 0.065664
v 1.424628 7.998820 0.065664
v 3.035625 7.998820 0.065664
v 4.646621 7.998820 0.065664
v 6.257617 7.998820 0.065664
v -6.630355 9.609817 0.065664
v -5.019358 9.609817 0.065664
v -3.408362 9.609817 0.065664
v -1.797365 9.609817 0.065664
v -0.186369 9.609817 0.065664
v 1.424628 9.609817 0.065664
v 3.035625 9.609817 0.065664
v 4.646621 9.609817 0.065664
v 6.257617 9.609817 0.065664
v -6.630355 11.220813 0.065664
v -5.019358 11.220813 0.065664
v -3.408362 11.220813 0.065664
v -1.797365 11.220813 0.065664
v -0.186369 11.220813 0.065664
v 1.424628 11.220813 0.065664
v 3.035625 11.220813 0.065664
v 4.646621 11.220813 0.065664
v 6.257617 11.220813 0.065664
v -6.630355 12.831810 0.065664
v -5.019358 12.831810 0.065664
v -3.408362 12.831810 0.065664
v -1.797365 12.831810 0.065664
v -0.186369 12.831810 0.065664
v 1.424628 12.831810 0.065664
v 3.035625 12.831810 0.065664
v 4.646621 12.831810 0.065664
v 6.257617 12.831810 0.065664
vt 0.000000 0.000000
vt 0.125000 0.000000
vt 0.250000 0.000000
vt 0.375000 0.000000
vt 0.500000 0.000000
vt 0.625000 0.000000
vt 0.750000 0.000000
vt 0.875000 0.000000
vt 1.000000 0.000000
vt 0.000000 0.125000
vt 0.125000 0.125000
vt 0.250000 0.125000
vt 0.375000 0.125000
vt 0.500000 0.125000
vt 0.625000 0.125000
vt 0.750000 0.125000
vt 0.875000 0.125000
vt 1.000000 0.125000
vt 0.000000 0.250000
vt 0.125000 0.250000
vt 0.250000 0.250000
vt 0.375000 0.250000
vt 0.500000 0.250000
vt 0.625000 0.250000
vt 0.750000 0.250000
vt 0.875000 0.250000
vt 1.000000 0.250000
vt 0.000000 0.375000
vt 0.125000 0.375000
vt 0.250000 0.375000
vt 0.375000 0.375000
vt 0.500000 0.375000
vt 0.625000 0.375000
vt 0.750000 0.375000
vt 0.875000 0.375000
vt 1.000000 0.375000
vt 0.000000 0.500000
vt 0.125000 0.500000
vt 0.250000 0.500000
vt 0.375000 0.500000
vt 0.500000 0.500000
vt 0.625000 0.500000
vt 0.750000 0.500000
vt 0.875000 0.500000
vt 1.000000 0.500000
vt 0.000000 0.625000
vt 0.125000 0.625000
vt 0.250000 0.625000
vt 0.375000 0.625000
vt 0.500000 0.625000
vt 0.625000 0.625000
vt 0.750000 0.625000
vt 0.875000 0.625000
vt 1.000000 0.625000
vt 0.000000 0.750000
vt 0.125000 0.750000
vt 0.250000 0.750000
vt 0.375000 0.750000
vt 0.500000 0.750000
vt 0.625000 0.750000
vt 0.750000 0.750000
vt 0.875000 0.750000
vt 1.000000 0.750000
vt 0.000000 0.875000
vt 0.125000 0.875000
vt 0.250000 0.875000
vt 0.375000 0.875000
vt 0.500000 0.875000
vt 0.625000 0.875000
vt 0.750000 0.875000
vt 0.875000 0.875000
vt 1.000000 0.875000
vt 0.000000 1.000000
vt 0.125000 1.000000
vt 0.250000 1.000000
vt 0.375000 1.000000
vt 0.500000 1.000000
vt 0.625000 1.000000
vt 0.750000 1.000000
vt 0.875000 1.000000
vt 1.000000 1.000000
vn 0.000000 0.000000 1.000000
vn 0.000000 0.000000 1.000000
vn 0.000000 -0.000000 1.000000
vn 0.000000 0.000000 1.000000
vn 0.000000 0.000000 1.000000
vn 0.000000 0.000000 1.000000
vn 0.000000 0.000000 1.000000
vn 0.000000 0.000000 1.000000
vn 0.000000 0.000000 1.000000
vn 0.000000 0.000000 1.000000
vn 0.000000 0.000000 1.000000
vn 0.000000 0.000000 1.000000
vn 0.000000 0.000000 1.000000
vn 0.000000 0.000000 1.000000
vn 0.000000 0.000000 1.000000
vn 0.000000 0.000000 1.000000
vn 0.000000 0.000000 1.000000
vn 0.000000 0.000000 1.000000
vn 0.000000 -0.000000 1.000000
vn 0.000000 -0.000000 1.000000
vn 0.000000 0.000000 1.000000
vn 0.000000 -0.000000 1.000000
vn 0.000000 0.000000 1.000000
vn 0.000000 0.000000 1.000000
vn 0.000000 0.000000 1.000000
vn 0.000000 0.000000 1.000000
vn 0.000000 -0.000000 1.000000
vn 0.000000 0.000000 1.000000
vn 0.000000 -0.000000 1.000000
vn 0.000000 0.000000 1.000000
vn 0.000000 -0.000000 1.000000
vn 0.000000 0.000000 1.000000
vn 0.000000 0.000000 1.000000
vn 0.000000 0.000000 1.000000
vn 0.000000 0.000000 1.000000
vn 0.000000 -0.000000 1.000000
vn 0.000000 -0.000000 1.000000
vn 0.000000 -0.000000 1.000000
vn 0.000000 0.000000 1.000000
vn 0.000000 -0.000000 1.000000
vn 0.000000 0.000000 1.000000
vn 0.000000 0.000000 1.000000
vn 0.000000 0.000000 1.000000
vn 0.000000 -0.000000 1.000000
vn 0.000000 -0.000000 1.000000
vn 0.000000 0.000000 1.000000
vn 0.000000 0.000000 1.000000
vn 0.000000 0.000000 1.000000
vn 0.000000 -0.000000 1.000000
vn 0.000000 0.000000 1.000000
vn 0.000000 0.000000 1.000000
vn 0.000000 0.000000 1.000000
vn 0.000000 0.000000 1.000000
vn 0.000000 0.000000 1.000000
vn 0.000000 0.000000 1.000000
vn 0.000000 0.000000 1.000000
vn 0.000000 0.000000 1.000000
vn 0.000000 0.000000 1.000000
vn 0.000000 0.000000 1.000000
vn 0.000000 0.000000 1.000000
vn 0.000000 0.000000 1.000000
vn 0.000000 0.000000 1.000000
vn 0.000000 0.000000 1.000000
vn 0.000000 0.000000 1.000000
vn 0.000000 0.000000 1.000000
vn 0.000000 0.000000 1.000000
vn 0.000000 0.000000 1.000000
vn 0.000000 0.000000 1.000000
vn 0.000000 0.000000 1.000000
vn 0.000000 0.000000 1.000000
vn 0.000000 0.000000 1.000000
vn 0.000000 0.000000 1.000000
vn 0.000000 0.000000 1.000000
vn 0.000000 0.000000 1.000000
vn 0.000000 0.000000 1.000000
vn 0.000000 0.000000 1.000000
vn 0.000000 0.000000 1.000000
vn 0.000000 0.000000 1.000000
vn 0.000000 0.000000 1.000000
vn 0.000000 0.000000 1.000000
vn 0.000000 0.000000 1.000000
s 1
g pPlane1
usemtl initialShadingGroup
f 1/1/1 2/2/2 11/11/3 10/10/4
f 2/2/2 3/3/5 12/12/6 11/11/3
f 3/3/5 4/4/7 13/13/8 12/12/6
f 4/4/7 5/5/9 14/14/10 13/13/8
f 5/5/9 6/6/11 15/15/12 14/14/10
f 6/6/11 7/7/13 16/16/14 15/15/12
f 7/7/13 8/8/15 17/17/16 16/16/14
f 8/8/15 9/9/17 18/18/18 17/17/16
f 10/10/4 11/11/3 20/20/19 19/19/20
f 11/11/3 12/12/6 21/21/21 20/20/19
f 12/12/6 13/13/8 22/22/22 21/21/21
f 13/13/8 14/14/10 23/23/23 22/22/22
f 14/14/10 15/15/12 24/24/24 23/23/23
f 15/15/12 16/16/14 25/25/25 24/24/24
f 16/16/14 17/17/16 26/26/26 25/25/25
f 17/17/16 18/18/18 27/27/27 26/26/26
f 19/19/20 20/20/19 29/29/28 28/28/29
f 20/20/19 21/21/21 30/30/30 29/29/28
f 21/21/21 22/22/22 31/31/31 30/30/30
f 22/22/22 23/23/23 32/32/32 31/31/31
f 23/23/23 24/24/24 33/33/33 32/32/32
f 24/24/24 25/25/25 34/34/34 33/33/33
f 25/25/25 26/26/26 35/35/35 34/34/34
f 26/26/26 27/27/27 36/36/36 35/35/35
f 28/28/29 29/29/28 38/38/37 37/37/38
f 29/29/28 30/30/30 39/39/39 38/38/37
f 30/30/30 31/31/31 40/40/40 39/39/39
f 31/31/31 32/32/32 41/41/41 40/40/40
f 32/32/32 33/33/33 42/42/42 41/41/41
f 33/33/33 34/34/34 43/43/43 42/42/42
f 34/34/34 35/35/35 44/44/44 43/43/43
f 35/35/35 36/36/36 45/45/45 44/44/44
f 37/37/38 38/38/37 47/47/46 46/46/47
f 38/38/37 39/39/39 48/48/48 47/47/46
f 39/39/39 40/40/40 49/49/49 48/48/48
f 40/40/40 41/41/41 50/50/50 49/49/49
f 41/41/41 42/42/42 51/51/51 50/50/50
f 42/42/42 43/43/43 52/52/52 51/51/51
f 43/43/43 44/44/44 53/53/53 52/52/52
f 44/44/44 45/45/45 54/54/54 53/53/53
f 46/46/47 47/47/46 56/56/55 55/55/56
f 47/47/46 48/48/48 57/57/57 56/56/55
f 48/48/48 49/49/49 58/58/58 57/57/57
f 49/49/49 50/50/50 59/59/59 58/58/58
f 50/50/50 51/51/51 60/60/60 59/59/59
f 51/51/51 52/52/52 61/61/61 60/60/60
f 52/52/52 53/53/53 62/62/62 61/61/61
f 53/53/53 54/54/54 63/63/63 62/62/62
f 55/55/56 56/56/55 65/65/64 64/64/65
f 56/56/55 57/57/57 66/66/66 65/65/64
f 57/57/57 58/58/58 67/67/67 66/66/66
f 58/58/58 59/59/59 68/68/68 67/67/67
f 59/59/59 60/60/60 69/69/69 68/68/68
f 60/60/60 61/61/61 70/70/70 69/69/69
f 61/61/61 62/62/62 71/71/71 70/70/70
f 62/62/62 63/63/63 72/72/72 71/71/71
f 64/64/65 65/65/64 74/74/73 73/73/74
f 65/65/64 66/66/66 75/75/75 74/74/73
f 66/66/66 67/67/67 76/76/76 75/75/75
f 67/67/67 68/68/68 77/77/77 76/76/76
f 68/68/68 69/69/69 78/78/78 77/77/77
f 69/69/69 70/70/70 79/79/79 78/78/78
f 70/70/70 71/71/71 80/80/80 79/79/79
f 71/71/71 72/72/72 81/81/81 80/80/80
